<svg fill="#000" xmlns="http://www.w3.org/2000/svg" viewBox="0 0 48 48">
    <path d="M15.684,45.961c-0.193,0-0.388-0.035-0.576-0.106c-0.626-0.239-1.039-0.839-1.039-1.509v-4.946 c-2.322-0.695-4.507-1.686-5.918-2.952c-2.802-2.826-4.075-6.785-4.075-12.524v-3.23c0-5.739,1.273-9.698,4.006-12.457 C12.791,4,21.228,4,24,4s11.208,0,15.848,4.172c2.801,2.823,4.074,6.781,4.074,12.522l0.001,3.23c0,5.739-1.273,9.698-4.006,12.457 c-4.709,4.236-13.146,4.236-15.918,4.236c-0.663,0-1.395,0-2.642-0.063c-1.306,1.461-4.468,4.868-4.468,4.868 C16.576,45.772,16.135,45.961,15.684,45.961z M32.451,29.854c-1.111-0.936-1.624-1.219-3.158-2.14 C28.654,27.331,27.68,27,27.169,27c-0.349,0-0.767,0.267-1.023,0.523C25.49,28.179,25.275,29,24.125,29 c-1.125,0-3.09-1.145-4.5-2.625C18.145,24.965,17,23,17,21.875c0-1.15,0.806-1.38,1.462-2.037C18.718,19.583,19,19.165,19,18.816 c0-0.511-0.331-1.47-0.714-2.109c-0.921-1.535-1.203-2.048-2.14-3.158c-0.317-0.376-0.678-0.548-1.056-0.549 c-0.639-0.001-1.478,0.316-2.046,0.739c-0.854,0.637-1.747,1.504-1.986,2.584c-0.032,0.147-0.051,0.295-0.057,0.443 c-0.046,1.125,0.396,2.267,0.873,3.234c1.123,2.279,2.609,4.485,4.226,6.455c0.517,0.63,1.08,1.216,1.663,1.782 c0.566,0.582,1.152,1.145,1.782,1.663c1.97,1.617,4.176,3.103,6.455,4.226c0.958,0.472,2.086,0.906,3.2,0.874 c0.159-0.005,0.318-0.023,0.477-0.058c1.08-0.238,1.947-1.132,2.584-1.986c0.423-0.568,0.74-1.406,0.739-2.046 C32.999,30.532,32.827,30.171,32.451,29.854z M36,22v-1c0-6.065-4.935-11-11-11c-0.552,0-1,0.448-1,1s0.448,1,1,1 c4.962,0,9,4.038,9,9v1c0,0.552,0.448,1,1,1S36,22.552,36,22z M29.111,20.967c0.534-0.14,0.854-0.685,0.715-1.22 c-0.457-1.752-1.827-3.121-3.575-3.574c-0.537-0.137-1.081,0.184-1.219,0.718c-0.138,0.535,0.183,1.08,0.718,1.219 c1.047,0.27,1.867,1.091,2.141,2.142C28.008,20.702,28.414,21,28.858,21C28.941,21,29.026,20.989,29.111,20.967z M33,21 c0-4.252-3.326-7.759-7.573-7.983c-0.543-0.03-1.022,0.394-1.051,0.946c-0.029,0.551,0.394,1.022,0.946,1.051 C28.506,15.182,31,17.812,31,21c0,0.552,0.448,1,1,1C32.552,22,33,21.552,33,21z"/>
</svg>